<svg width="834" height="1024" viewBox="0 0 834 1024" fill="none" xmlns="http://www.w3.org/2000/svg">
<g clip-path="url(#clip0_31_31)">
<path d="M145.003 213.135C182.74 250.006 212.72 294.017 233.187 342.588C253.653 391.159 264.196 443.315 264.196 496C264.196 548.685 253.653 600.841 233.187 649.412C212.72 697.983 182.74 741.994 145.003 778.865L203.523 838.405C249.201 793.771 285.49 740.497 310.263 681.702C335.037 622.908 347.797 559.774 347.797 496C347.797 432.226 335.037 369.092 310.263 310.298C285.49 251.503 249.201 198.229 203.523 153.595L145.003 213.135Z" fill="#C0D4B8"/>
<path d="M276.742 79.2576C332.353 133.594 376.532 198.45 406.692 270.028C436.852 341.605 452.387 418.464 452.387 496.104C452.387 573.744 436.852 650.603 406.692 722.181C376.532 793.758 332.353 858.614 276.742 912.951L335.262 972.282C398.782 910.187 449.243 836.079 483.691 754.298C518.139 672.516 535.882 584.704 535.882 496C535.882 407.296 518.139 319.484 483.691 237.702C449.243 155.92 398.782 81.8132 335.262 19.718L276.742 79.2576Z" fill="#ECD379"/>
<path d="M402.492 -60.4555C477.712 11.5163 537.562 97.9113 578.448 193.537C619.333 289.163 640.41 392.045 640.41 496C640.41 599.955 619.333 702.837 578.448 798.463C537.562 894.089 477.712 980.484 402.492 1052.46L460.316 1112.62C544.005 1033.12 610.553 937.424 655.892 831.395C701.231 725.367 724.407 611.231 724.003 495.965C724.422 380.708 701.252 266.577 655.912 160.558C610.572 54.539 544.016 -41.1388 460.316 -120.62L402.492 -60.4555Z" fill="#DB6B57"/>
<path d="M17.1649 512.5L92.8228 587.88C71.1546 615.554 40.3915 634.719 5.94863 642L-123.91 512.5L17.1649 512.5Z" fill="#C0D4B8"/>
<path d="M44.8921 363.894L-70.8239 479.291L-173.93 479.291C-171.239 455.097 -162.654 431.926 -148.923 411.8C-135.192 391.673 -116.732 375.202 -95.1534 363.822C-73.5746 352.443 -49.5319 346.5 -25.1216 346.513C-0.711417 346.525 23.3251 352.492 44.8921 363.894Z" fill="#C0D4B8"/>
<path d="M-23.799 479.291L72.8284 383.139C101.342 407.699 119.505 442.089 123.685 479.43L-23.799 479.291Z" fill="#C0D4B8"/>
<path d="M64.2595 512.5L123.685 512.5C121.984 528.534 117.678 544.185 110.936 558.84L64.2595 512.5Z" fill="#C0D4B8"/>
</g>
<defs>
<clipPath id="clip0_31_31">
<rect width="1416" height="1031" fill="white" transform="matrix(1.19249e-08 -1 -1 -1.19249e-08 834 1204)"/>
</clipPath>
</defs>
</svg>
