<svg width="240" height="174" viewBox="0 0 240 174" fill="none" xmlns="http://www.w3.org/2000/svg">
<g clip-path="url(#clip0_149_212)">
<path d="M65.376 111.911C72.5042 104.617 81.0126 98.8224 90.4028 94.8665C99.793 90.9106 109.876 88.873 120.062 88.873C130.247 88.873 140.33 90.9106 149.721 94.8665C159.111 98.8224 167.619 104.617 174.747 111.911L186.258 100.6C177.629 91.7711 167.33 84.7571 155.963 79.9688C144.596 75.1805 132.391 72.7141 120.062 72.7141C107.732 72.7141 95.5269 75.1805 84.1602 79.9688C72.7936 84.7571 62.4942 91.7711 53.8653 100.6L65.376 111.911Z" fill="#C0D4B8"/>
<path d="M39.4938 86.4479C49.9985 75.6993 62.5371 67.1602 76.375 61.3307C90.2128 55.5013 105.072 52.4986 120.082 52.4986C135.092 52.4986 149.951 55.5013 163.789 61.3307C177.627 67.1602 190.165 75.6993 200.67 86.4479L212.14 75.1369C200.136 62.8596 185.809 53.1064 169.998 46.4481C154.187 39.7898 137.211 36.3603 120.062 36.3603C102.913 36.3603 85.9361 39.7898 70.1255 46.4481C54.3148 53.1064 39.9879 62.8596 27.9831 75.1369L39.4938 86.4479Z" fill="#ECD379"/>
<path d="M12.4834 62.1424C26.3975 47.6037 43.1001 36.0356 61.5872 28.133C80.0743 20.2305 99.9643 16.1569 120.062 16.1569C140.159 16.1569 160.049 20.2305 178.536 28.133C197.023 36.0356 213.726 47.6037 227.64 62.1424L239.272 50.9661C223.901 34.7903 205.401 21.9276 184.903 13.1643C164.405 4.40111 142.339 -0.0784661 120.055 -0.000464212C97.7725 -0.081368 75.7079 4.39694 55.2115 13.1604C34.715 21.9239 16.2178 34.7882 0.851852 50.9661L12.4834 62.1424Z" fill="#DB6B57"/>
<path d="M123.252 136.62L137.825 121.997C143.175 126.185 146.88 132.131 148.288 138.788L123.252 163.887V136.62Z" fill="#C0D4B8"/>
<path d="M94.5221 131.261L116.832 153.627V173.556C112.154 173.035 107.675 171.376 103.784 168.722C99.8925 166.068 96.7082 162.5 94.5082 158.329C92.3082 154.158 91.1593 149.511 91.1617 144.793C91.1641 140.075 92.3178 135.429 94.5221 131.261Z" fill="#C0D4B8"/>
<path d="M116.832 144.538L98.2426 125.861C102.991 120.35 109.639 116.839 116.858 116.031L116.832 144.538Z" fill="#C0D4B8"/>
<path d="M123.252 173.152L148.771 147.567C148.138 154.178 145.256 160.37 140.61 165.104C135.964 169.839 129.835 172.827 123.252 173.569V173.152Z" fill="#C0D4B8"/>
<path d="M123.252 127.517V116.031C126.351 116.36 129.377 117.192 132.21 118.496L123.252 127.517Z" fill="#C0D4B8"/>
</g>
<defs>
<clipPath id="clip0_149_212">
<rect width="238.42" height="173.556" fill="white" transform="matrix(-1 0 0 1 239.272 0)"/>
</clipPath>
</defs>
</svg>
