<svg width="45" height="52" viewBox="0 0 45 52" fill="none" xmlns="http://www.w3.org/2000/svg">
<path d="M38.4089 38.2837L26.1726 50.4831C25.6904 50.964 25.1179 51.3455 24.4877 51.6058C23.8575 51.866 23.1821 52 22.4999 52C21.8178 52 21.1424 51.866 20.5122 51.6058C19.882 51.3455 19.3095 50.964 18.8273 50.4831L6.59095 38.2837C4.50152 36.2014 2.84405 33.7293 1.71317 31.0086C0.582298 28.2879 0.00016077 25.3718 3.32953e-08 22.4268C-0.000160703 19.4818 0.581658 16.5657 1.71224 13.8448C2.84282 11.124 4.50002 8.65168 6.58922 6.56916C8.67841 4.48664 11.1587 2.83465 13.8885 1.70751C16.6182 0.580373 19.544 0.000160194 22.4987 3.31671e-08C25.4535 -0.000160128 28.3793 0.579736 31.1092 1.70658C33.8391 2.83342 36.3195 4.48514 38.4089 6.56744C40.4985 8.64986 42.1561 11.1221 43.287 13.8431C44.4179 16.5641 45 19.4804 45 22.4256C45 25.3708 44.4179 28.2871 43.287 31.0081C42.1561 33.729 40.4985 36.2013 38.4089 38.2837ZM34.7398 10.2279C33.1324 8.62589 31.2242 7.35508 29.1241 6.48806C27.024 5.62104 24.7731 5.17479 22.4999 5.17479C20.2268 5.17479 17.9759 5.62104 15.8758 6.48806C13.7757 7.35508 11.8675 8.62589 10.2601 10.2279C8.65277 11.83 7.37774 13.7319 6.50785 15.8251C5.63795 17.9182 5.19022 20.1617 5.19022 22.4273C5.19022 24.6929 5.63795 26.9364 6.50785 29.0296C7.37774 31.1227 8.65277 33.0246 10.2601 34.6267L22.4999 46.8191L34.7398 34.6267C36.3474 33.0248 37.6227 31.1229 38.4927 29.0297C39.3628 26.9365 39.8106 24.693 39.8106 22.4273C39.8106 20.1616 39.3628 17.9181 38.4927 15.8249C37.6227 13.7317 36.3474 11.8298 34.7398 10.2279ZM22.4999 29.3274C21.578 29.3482 20.6612 29.1852 19.8034 28.8479C18.9455 28.5107 18.1639 28.0061 17.5044 27.3636C16.8449 26.7212 16.3209 25.9539 15.963 25.1068C15.6052 24.2597 15.4207 23.3499 15.4205 22.4308C15.4202 21.5117 15.6042 20.6018 15.9617 19.7545C16.3191 18.9072 16.8428 18.1397 17.5019 17.4969C18.1611 16.8542 18.9425 16.3491 19.8001 16.0115C20.6578 15.6738 21.5745 15.5103 22.4965 15.5307C24.3053 15.5705 26.0266 16.3146 27.2919 17.6036C28.5572 18.8926 29.266 20.624 29.2664 22.4273C29.2669 24.2306 28.559 25.9625 27.2943 27.2521C26.0297 28.5417 24.3088 29.2866 22.4999 29.3274Z" fill="#DB6B57"/>
</svg>
